<svg width="16" height="16" viewBox="0 0 16 16" fill="none" xmlns="http://www.w3.org/2000/svg">
<g id="Icons 24x24 Dark/edit">
<path id="Vector" d="M2 11.5003V14H4.49966L11.872 6.62767L9.37233 4.12801L2 11.5003ZM13.8051 4.6946C13.8669 4.63293 13.9159 4.55968 13.9493 4.47904C13.9828 4.3984 14 4.31196 14 4.22466C14 4.13736 13.9828 4.05092 13.9493 3.97028C13.9159 3.88964 13.8669 3.81639 13.8051 3.75472L12.2453 2.19494C12.1836 2.13314 12.1104 2.08412 12.0297 2.05067C11.9491 2.01722 11.8626 2 11.7753 2C11.688 2 11.6016 2.01722 11.521 2.05067C11.4403 2.08412 11.3671 2.13314 11.3054 2.19494L10.0856 3.41477L12.5852 5.91443L13.8051 4.6946Z" fill="white"/>
</g>
</svg>
